<svg width="23" height="20" viewBox="0 0 23 20" fill="none" xmlns="http://www.w3.org/2000/svg">
<path d="M21.3604 2.18684C20.8213 1.6819 20.1774 1.29959 19.4287 1.03991C18.68 0.780231 17.8265 0.650391 16.8682 0.650391C16.5986 0.650391 16.3291 0.672031 16.0596 0.715311C15.79 0.758593 15.5205 0.823513 15.251 0.910072C14.9665 1.01106 14.6969 1.11926 14.4424 1.23467C14.1878 1.35009 13.9408 1.48714 13.7012 1.64584C13.4616 1.7901 13.2407 1.93437 13.0386 2.07864C12.8364 2.2229 12.6455 2.35996 12.4658 2.4898C12.3011 2.61964 12.1364 2.75309 11.9717 2.89014C11.807 3.02719 11.6497 3.17507 11.5 3.33376C11.3503 3.17507 11.193 3.02719 11.0283 2.89014C10.8636 2.75309 10.6989 2.61964 10.5342 2.4898C10.3545 2.35996 10.1636 2.2229 9.96143 2.07864C9.75928 1.93437 9.53841 1.7901 9.29883 1.64584C9.05925 1.48714 8.81217 1.35009 8.55762 1.23467C8.30306 1.11926 8.03353 1.01106 7.74902 0.910072C7.47949 0.823513 7.20996 0.758593 6.94043 0.715311C6.6709 0.672031 6.40137 0.650391 6.13184 0.650391C5.1735 0.650391 4.31999 0.780231 3.57129 1.03991C2.82259 1.29959 2.17871 1.6819 1.63965 2.18684C1.08561 2.69177 0.673828 3.3013 0.404297 4.01543C0.134766 4.72955 0 5.54105 0 6.44994C0 6.72404 0.0262044 7.00176 0.0786133 7.28308C0.131022 7.5644 0.202148 7.84933 0.291992 8.13786C0.39681 8.44082 0.505371 8.71493 0.617676 8.96019C0.72998 9.20544 0.853516 9.43627 0.988281 9.65267C1.12305 9.85464 1.26156 10.0566 1.40381 10.2586C1.54606 10.4606 1.69954 10.6553 1.86426 10.8429C2.02897 11.0448 2.17122 11.2144 2.29102 11.3514C2.41081 11.4885 2.50814 11.5931 2.58301 11.6652C2.65788 11.7373 2.72152 11.7986 2.77393 11.8491C2.82633 11.8996 2.875 11.9465 2.91992 11.9898L10.9385 19.434C11.0133 19.5061 11.0994 19.5602 11.1968 19.5963C11.2941 19.6324 11.3952 19.6504 11.5 19.6504C11.6048 19.6504 11.7059 19.6324 11.8032 19.5963C11.9006 19.5602 11.9867 19.5061 12.0615 19.434L20.0576 12.0114C21.0459 11.0593 21.7834 10.1215 22.27 9.19823C22.7567 8.27492 23 7.35882 23 6.44994C23 5.54105 22.8652 4.72955 22.5957 4.01543C22.3262 3.3013 21.9144 2.69177 21.3604 2.18684ZM18.9346 10.8429L11.5 17.7461L4.04297 10.8212C3.24935 10.0566 2.65039 9.31003 2.24609 8.58148C1.8418 7.85293 1.63965 7.14242 1.63965 6.44994C1.63965 6.10369 1.66211 5.78631 1.70703 5.49777C1.75195 5.20924 1.81934 4.93513 1.90918 4.67545C2.014 4.41577 2.12256 4.18494 2.23486 3.98297C2.34717 3.78099 2.47819 3.60787 2.62793 3.4636C2.7627 3.30491 2.91992 3.16425 3.09961 3.04162C3.2793 2.91899 3.46647 2.8144 3.66113 2.72784C3.87077 2.62685 4.07666 2.5439 4.27881 2.47898C4.48096 2.41406 4.67936 2.36717 4.87402 2.33832C5.06869 2.30947 5.27083 2.28422 5.48047 2.26258C5.6901 2.24094 5.90723 2.23012 6.13184 2.23012C6.35645 2.23012 6.58854 2.25897 6.82812 2.31668C7.06771 2.37439 7.31478 2.45373 7.56934 2.55472C7.82389 2.65571 8.07096 2.77112 8.31055 2.90096C8.55013 3.0308 8.77474 3.17507 8.98438 3.33376C9.20898 3.49246 9.41113 3.64754 9.59082 3.79902C9.77051 3.95051 9.94271 4.09838 10.1074 4.24265C10.2572 4.37249 10.3957 4.50233 10.5229 4.63217C10.6502 4.76201 10.7663 4.88464 10.8711 5.00005C10.946 5.08661 11.0358 5.15153 11.1406 5.19481C11.2454 5.23809 11.3652 5.25973 11.5 5.25973C11.6348 5.25973 11.7546 5.23809 11.8594 5.19481C11.9642 5.15153 12.054 5.08661 12.1289 5.00005C12.2337 4.88464 12.3498 4.76201 12.4771 4.63217C12.6043 4.50233 12.7428 4.37249 12.8926 4.24265C13.0573 4.09838 13.2295 3.95051 13.4092 3.79902C13.5889 3.64754 13.791 3.49246 14.0156 3.33376C14.2253 3.17507 14.4499 3.0308 14.6895 2.90096C14.929 2.77112 15.1761 2.65571 15.4307 2.55472C15.6852 2.45373 15.9323 2.37439 16.1719 2.31668C16.4115 2.25897 16.6436 2.23012 16.8682 2.23012C17.0928 2.23012 17.3099 2.24094 17.5195 2.26258C17.7292 2.28422 17.9313 2.30947 18.126 2.33832C18.3206 2.36717 18.519 2.41406 18.7212 2.47898C18.9233 2.5439 19.1292 2.62685 19.3389 2.72784C19.5335 2.8144 19.7207 2.91899 19.9004 3.04162C20.0801 3.16425 20.2373 3.30491 20.3721 3.4636C20.5218 3.60787 20.6528 3.78099 20.7651 3.98297C20.8774 4.18494 20.986 4.41577 21.0908 4.67545C21.1807 4.93513 21.248 5.20924 21.293 5.49777C21.3379 5.78631 21.3604 6.10369 21.3604 6.44994C21.3604 7.14242 21.1582 7.85293 20.7539 8.58148C20.3496 9.31003 19.7432 10.0638 18.9346 10.8429Z" fill="white"/>
</svg>
