<svg width="20" height="19" viewBox="0 0 20 19" fill="none" xmlns="http://www.w3.org/2000/svg">
<path d="M12.8707 2.61213L18.442 0.0397216C18.662 -0.0604431 18.9185 0.0351687 19.0187 0.255227C19.0445 0.312898 19.0612 0.375122 19.0612 0.438863V14.7396C19.0612 14.9081 18.9671 15.0492 18.8305 15.1221L13.1029 18.5808C13.0923 18.5854 13.0817 18.596 13.0665 18.6021L13.0619 18.6066H13.0468C12.9936 18.6324 12.936 18.643 12.8798 18.643C12.8237 18.643 12.7645 18.6324 12.7114 18.6066H12.6962L12.6916 18.6021C12.681 18.5975 12.6658 18.5914 12.6552 18.5808L7.13248 15.2481L1.60369 18.5869C1.39881 18.7128 1.12715 18.6446 1.00574 18.4397C0.960212 18.3699 0.938965 18.2909 0.938965 18.212V3.09323C0.938965 2.90504 1.05431 2.7472 1.22125 2.68498L6.95036 0.0442745H6.96099L6.97161 0.0397216H6.97616C7.01866 0.0245451 7.05963 0.0139216 7.10668 0.0139216H7.1598C7.20229 0.0184745 7.24934 0.0245451 7.29032 0.0397216H7.29487L7.30549 0.0442745H7.31612L12.8874 2.61669L12.8707 2.61213ZM6.68174 14.4908V1.11725L1.80402 3.37096V17.4365L6.68174 14.4908ZM12.4367 17.4365V3.37096L7.55742 1.11725V14.4908L12.4367 17.4365ZM18.1901 1.11725L13.3123 3.37096V17.4365L18.1916 14.4908V1.11725H18.1901Z" fill="black"/>
</svg>
