<svg width="6" height="10" viewBox="0 0 6 10" fill="none" xmlns="http://www.w3.org/2000/svg">
<path d="M6 4.99998C6.00007 5.05968 5.98716 5.1188 5.96202 5.17395C5.93688 5.2291 5.9 5.27919 5.8535 5.32134L0.853527 9.86679C0.658153 10.0444 0.34178 10.0444 0.14653 9.86679C-0.0487185 9.68918 -0.0488435 9.40156 0.14653 9.22406L4.79301 4.99998L0.14653 0.775894C-0.0488439 0.598281 -0.0488439 0.310667 0.14653 0.133167C0.341904 -0.0443325 0.658277 -0.044446 0.853526 0.133167L5.8535 4.67862C5.9 4.72077 5.93688 4.77086 5.96202 4.82601C5.98716 4.88116 6.00007 4.94028 6 4.99998Z" fill="#606060"/>
</svg>
